<?xml version="1.0" encoding="UTF-8"?><svg id="Layer_2" xmlns="http://www.w3.org/2000/svg" viewBox="0 0 377.76 248.76"><g id="Layer_1-2"><path d="m276.51,181.13c-1.14,4.25-1.06,8.17.49,10.81s4.55,4.02,9.24,3.2c0,0,0,0,0,0s0,0,0,0c-10.23,6.28-20.54,11.85-30.95,16.84-10.41,4.98-20.92,9.37-31.57,13.3-8.13,2.95-16.18,5.66-24.15,8.11s-15.86,4.63-23.67,6.53c-.03,0-.05.01-.08.02s-.05.01-.08.02l1.73-10.62,1.73-10.62s.03,0,.04,0,.03,0,.04,0c7.18-1.68,14.4-3.61,21.68-5.78,7.29-2.17,14.65-4.57,22.13-7.21,9.07-3.25,18.02-6.84,26.9-10.9s17.68-8.57,26.47-13.64c0,0,.01,0,.02-.01s.01,0,.02-.01ZM126.01,43.55s-.15.07-.11.05c32.19-13.58-.08.04-.11.05-10.22,4.89-20.12,10.19-29.79,15.9-9.67,5.71-19.1,11.84-28.41,18.37C28.31,106.76,5.76,139.07.97,167.88c-4.79,28.81,8.17,54.12,39.89,68.94,16.91,6.52,34.59,10.22,53.02,11.46,18.42,1.24,37.59,0,57.47-3.33,0,0,.01,0,.02,0,0,0,24.45-5.03,24.45-5.03l-22.56-5.74,26.03-15.5s-24.17,4.74-24.18,4.74-.02,0-.03,0c-17.53,2.66-34.64,3.58-51.1,2.43-16.47-1.15-32.29-4.36-47.26-9.96-28.87-13.08-40.66-35.41-36.3-60.84,4.36-25.43,24.88-53.94,60.62-79.38,6.73-4.59,13.53-8.93,20.42-13.02s13.86-7.95,20.93-11.55c.03-.02.06-.03.09-.05.03-.02,35.39-15.63,35.42-15.65l-33.61,11.87,1.72-3.73Zm31.86-8.13c.19-.73.28-1.46.28-2.31,0-.85-31.97,11.64-32.14,10.44.02,0,31.94-13.48,31.98-13.49.04-.02.08-.03.1-.04.79-.29,1.58-.58,2.37-.86.79-.29,1.59-.57,2.38-.85.01,0,0,0-.02,0-.02,0,23.44-7.42,23.46-7.42l-23.96,10.25,23.05-4.83s-23.56,7.65-23.57,7.65c-.01,0-.03,0-.04.01-.69.25-1.3.47-1.92.7-.62.23-1.23.46-1.91.71,0,0-.02,0-.03.01,0,0-.02,0-.03.01Zm156.75,119.58c.79,3.76,5.39,7.03,3.43,8.81-22.32,20.24-71.84,61.92,5.01,5.08,0,0,0,0,0,0,0,0,0,0,0,0,3.32-2.76,6.37-5.42,9.33-8.15,2.96-2.73,5.84-5.53,8.82-8.57,18.37-20.29,30.62-41.21,34.87-60.8,4.25-19.59.5-37.86-13.11-52.85-18.08-17.26-42.25-26.73-71.86-29.37-29.61-2.64-64.65,1.57-104.46,11.67-.03,0-.11.03-.19.05-.08.02-.16.04-.19.05l-.45,2.71-.45,2.71s.07-.02.1-.03.07-.02.1-.03c.26-.07.52-.15.78-.22.26-.07.52-.15.78-.22,36.68-9.18,69.06-13.09,96.42-10.87,27.35,2.22,49.69,10.57,66.28,25.93,12.39,13.23,15.8,29.35,11.93,46.64-3.87,17.29-15.01,35.75-31.73,53.66-2.55,2.53-4.99,4.83-7.49,7.08-2.5,2.25-43.24,30.61-46.07,32.92,0,0,38.17-26.16,38.17-26.16s0,0,0,0Z" style="fill:#e30613; fill-rule:evenodd;"/><ellipse cx="283.32" cy="195.64" rx=".25" ry=".08" style="fill:#e30613;"/><ellipse cx="284.25" cy="195.24" rx="1.41" ry=".66" style="fill:#e30613;"/><ellipse cx="283.45" cy="194.81" rx="1.41" ry=".66" style="fill:#e30613;"/><ellipse cx="282.08" cy="197.13" rx=".64" ry=".3" style="fill:#e30613;"/><ellipse cx="281.9" cy="197.27" rx=".37" ry=".39" style="fill:#e30613;"/><rect x="281.92" y="195.82" width="1.41" height="1.39" transform="translate(-58.25 148.55) rotate(-26.8)" style="fill:#e30613;"/><rect x="281.99" y="197.13" width="1" height=".25" transform="translate(-59.11 152.36) rotate(-27.44)" style="fill:#e30613;"/><rect x="283" y="195.53" width="1.24" height="1" transform="translate(240.32 538.07) rotate(-117.44)" style="fill:#e30613;"/><rect x="283.57" y="195.9" width="0" height="0" style="fill:#e30613;"/><rect x="282.86" y="195.52" width=".31" height=".17" style="fill:#e30613;"/><rect x="276.46" y="181.15" width="7.93" height="14.51" style="fill:#e30613;"/><rect x="276.31" y="181.35" width=".45" height=".46" style="fill:#e30613;"/><rect x="276.38" y="181.28" width=".23" height=".12" style="fill:#e30613;"/><rect x="276.17" y="181.72" width=".88" height="1.25" style="fill:#e30613;"/><rect x="275.76" y="182.44" width="1.1" height="1.13" style="fill:#e30613;"/><rect x="275.54" y="183.48" width="1.7" height="6.26" style="fill:#e30613;"/><rect x="275.96" y="188.94" width="1.31" height="2.51" style="fill:#e30613;"/><rect x="283.62" y="194.94" width="2.64" height=".92" transform="translate(-60.12 177.88) rotate(-31.53)" style="fill:#e30613;"/><rect x="282.12" y="168.45" width="6.2" height="20.82" transform="translate(269.46 -157.43) rotate(55.23)" style="fill:#e30613;"/><rect x="298.5" y="157.08" width="6.2" height="20.82" transform="translate(267.15 -175.77) rotate(55.23)" style="fill:#e30613;"/><rect x="308.39" y="150.21" width="6.2" height="20.82" transform="translate(265.76 -186.85) rotate(55.23)" style="fill:#e30613;"/><rect x="295.5" y="152.44" width="9.5" height="50.47" transform="translate(274.94 -170.29) rotate(55.23)" style="fill:#e30613;"/><rect x="173.1" y="219.15" width="8.62" height="5.62" transform="translate(-43.01 42.64) rotate(-12.24)" style="fill:#e30613;"/><rect x="168.79" y="234.75" width="8.62" height="5.62" transform="translate(-46.42 42.08) rotate(-12.24)" style="fill:#e30613;"/><rect x="150.47" y="226.43" width="27.7" height="12.45" style="fill:#e30613;"/><rect x="175.37" y="220.49" width="7.98" height="6.64" style="fill:#e30613;"/><rect x="165.47" y="223.81" width="11.36" height="5.68" style="fill:#e30613;"/><rect x="168.98" y="222.41" width="6.13" height="2.3" style="fill:#e30613;"/><rect x="124.17" y="45.31" width="3.49" height="2.27" style="fill:#e30613;"/><rect x="125.92" y="43.91" width="3.61" height="2.47" style="fill:#e30613;"/><rect x="124.89" y="44.81" width="2.12" height="1.24" style="fill:#e30613;"/><rect x="130.94" y="45.26" width=".3" height=".32" style="fill:#e30613;"/><rect x="125.92" y="43.1" width="2.59" height="1.33" transform="translate(-6.93 53.93) rotate(-23.32)" style="fill:#e30613;"/><rect x="125.26" y="44.98" width="1.47" height=".09" style="fill:#e30613;"/><rect x="125.67" y="43.8" width=".35" height="1.3" style="fill:#e30613;"/><rect x="125.35" y="44.37" width=".33" height=".73" style="fill:#e30613;"/><rect x="125.54" y="44.19" width=".3" height=".28" style="fill:#e30613;"/><rect x="128.23" y="43.04" width="2.24" height="2.54" style="fill:#e30613;"/><rect x="131.38" y="41.49" width="1.22" height="1.15" style="fill:#e30613;"/><rect x="128.61" y="42.97" width="1.05" height=".49" style="fill:#e30613;"/><rect x="128.85" y="42.64" width="1.38" height=".81" style="fill:#e30613;"/><rect x="129.97" y="42.43" width=".81" height="1.05" style="fill:#e30613;"/><rect x="130.54" y="42.24" width="1.46" height="3.27" style="fill:#e30613;"/><rect x="130.14" y="41.92" width="1.73" height="3.59" style="fill:#e30613;"/><rect x="131.9" y="41.64" width="2.18" height="3.27" style="fill:#e30613;"/><rect x="132.88" y="41.28" width="2.45" height="2.79" style="fill:#e30613;"/><rect x="133.79" y="40.73" width="2.51" height="2.95" style="fill:#e30613;"/><rect x="135.53" y="40.31" width="1.06" height="3.6" style="fill:#e30613;"/><rect x="136.3" y="39.98" width="1.3" height="3.17" style="fill:#e30613;"/><rect x="137.22" y="39.42" width="2.67" height="3.29" style="fill:#e30613;"/><rect x="138.95" y="38.69" width="2.23" height="3.42" style="fill:#e30613;"/><rect x="139.76" y="38.24" width="4.15" height="2.53" style="fill:#e30613;"/><rect x="140.4" y="38.65" width=".98" height="3.72" style="fill:#e30613;"/><rect x="140.49" y="40.22" width="2.44" height="1.2" style="fill:#e30613;"/><rect x="141.58" y="37.6" width="3.34" height="2.71" style="fill:#e30613;"/><rect x="144.36" y="37" width="1.35" height="3.21" transform="translate(160.62 187.87) rotate(-110.86)" style="fill:#e30613;"/><rect x="145.19" y="37.89" width=".6" height=".67" style="fill:#e30613;"/><rect x="143.59" y="37.14" width="2.41" height="2.98" style="fill:#e30613;"/><rect x="143.27" y="40.02" width="1.41" height=".59" style="fill:#e30613;"/><rect x="145.54" y="36.44" width="1.53" height="3.16" style="fill:#e30613;"/><rect x="147.19" y="35.4" width="2.81" height="2.21" style="fill:#e30613;"/><rect x="147.07" y="36.69" width=".77" height="2.91" style="fill:#e30613;"/><rect x="147.36" y="37.33" width="1.93" height="1.22" style="fill:#e30613;"/><rect x="147.04" y="38.34" width="1.29" height=".77" style="fill:#e30613;"/><rect x="147.6" y="38.14" width="1.36" height=".66" style="fill:#e30613;"/><rect x="146.68" y="36.33" width=".68" height=".53" style="fill:#e30613;"/><rect x="148.49" y="37.14" width="1.52" height="1.41" style="fill:#e30613;"/><rect x="149.66" y="36.72" width=".43" height="2.08" style="fill:#e30613;"/><rect x="149.8" y="35.31" width=".61" height="2.97" style="fill:#e30613;"/><rect x="150.09" y="35" width=".8" height="3.16" style="fill:#e30613;"/><rect x="150.49" y="34.4" width=".93" height="3.57" style="fill:#e30613;"/><rect x="151.11" y="34.27" width=".55" height="3.53" style="fill:#e30613;"/><rect x="152.59" y="34.88" width="6.79" height="1.24" transform="translate(-2.05 60.33) rotate(-21.75)" style="fill:#e30613;"/><rect x="151.47" y="36.39" width=".59" height="1.46" style="fill:#e30613;"/><rect x="151.82" y="35.99" width="1" height="2" transform="translate(141.52 -119.39) rotate(72.4)" style="fill:#e30613;"/><rect x="151.38" y="34.74" width="1.52" height="2.2" style="fill:#e30613;"/><rect x="152.14" y="34.06" width="2.53" height="2.24" style="fill:#e30613;"/><rect x="154.31" y="33.73" width="1.96" height="1.71" style="fill:#e30613;"/><rect x="157.01" y="32.51" width="1.2" height="2.25" transform="translate(315.21 67.27) rotate(180)" style="fill:#e30613;"/><rect x="154.67" y="33.24" width="2.66" height="1.93" style="fill:#e30613;"/><rect x="162.06" y="28.63" width="7.92" height="2.66" style="fill:#e30613;"/><rect x="168.08" y="27.59" width="2.85" height="2.21" style="fill:#e30613;"/><rect x="170.12" y="27.2" width="2.01" height="2.24" style="fill:#e30613;"/><rect x="171.38" y="25.91" width="2.72" height="3.26" style="fill:#e30613;"/><rect x="173.77" y="25.67" width="1.62" height="3.29" style="fill:#e30613;"/><rect x="174.88" y="25.07" width="1.84" height="3.65" style="fill:#e30613;"/><rect x="176.16" y="24.39" width="1.84" height="3.61" style="fill:#e30613;"/><rect x="176.4" y="27.2" width=".92" height="1.6" style="fill:#e30613;"/><rect x="184.78" y="25.89" width=".87" height=".45" transform="translate(.9 57.96) rotate(-17.83)" style="fill:#e30613;"/><rect x="186.2" y="20.9" width=".1" height=".08" transform="translate(1.65 53.34) rotate(-16.37)" style="fill:#e30613;"/><rect x="185.54" y="21.18" width=".76" height=".54" style="fill:#e30613;"/><rect x="185.55" y="21.15" width=".85" height=".06" style="fill:#e30613;"/><rect x="186.17" y="20.93" width=".12" height=".35" style="fill:#e30613;"/><rect x="185.62" y="21.09" width=".59" height=".11" style="fill:#e30613;"/><rect x="185.96" y="20.99" width=".25" height=".19" style="fill:#e30613;"/><rect x="185.77" y="21.07" width=".22" height=".05" style="fill:#e30613;"/><rect x="185.85" y="21.04" width=".15" height=".04" style="fill:#e30613;"/><rect x="185.91" y="21" width=".09" height=".06" style="fill:#e30613;"/><rect x="186.1" y="20.95" width=".08" height=".07" style="fill:#e30613;"/><rect x="186.02" y="20.97" width=".09" height=".03" style="fill:#e30613;"/><rect x="186.06" y="20.96" width=".14" height=".07" style="fill:#e30613;"/><rect x="186.14" y="20.93" width=".09" height=".05" style="fill:#e30613;"/><rect x="186.34" y="21.15" width=".07" height=".43" style="fill:#e30613;"/><rect x="186.18" y="20.92" width=".02" height=".03" style="fill:#e30613;"/><rect x="185.36" y="21.19" width=".23" height=".25" style="fill:#e30613;"/><rect x="185.11" y="21.44" width=".52" height=".61" style="fill:#e30613;"/><rect x="185.14" y="21.24" width=".3" height=".25" style="fill:#e30613;"/><rect x="185" y="21.39" width=".39" height=".27" style="fill:#e30613;"/><rect x="185.05" y="21.34" width=".19" height=".16" style="fill:#e30613;"/><rect x="184.85" y="21.64" width="1.39" height="1.39" style="fill:#e30613;"/><rect x="184.61" y="21.45" width=".04" height=".01" style="fill:#e30613;"/><rect x="184.72" y="21.42" width=".46" height=".42" style="fill:#e30613;"/><rect x="184.49" y="21.61" width=".8" height=".75" style="fill:#e30613;"/><rect x="184.5" y="21.5" width=".36" height=".21" style="fill:#e30613;"/><rect x="184.36" y="22.62" width="1.75" height="3.39" style="fill:#e30613;"/><rect x="184.15" y="21.61" width="1.25" height="1.55" style="fill:#e30613;"/><rect x="183.65" y="21.78" width="1.22" height="4.65" style="fill:#e30613;"/><rect x="183.38" y="21.94" width=".37" height="4.8" style="fill:#e30613;"/><rect x="184.36" y="26.24" width=".5" height=".03" style="fill:#e30613;"/><rect x="183.56" y="26.32" width=".31" height=".36" style="fill:#e30613;"/><rect x="184.1" y="26.15" width=".65" height=".33" style="fill:#e30613;"/><rect x="183.87" y="26.06" width=".63" height=".48" style="fill:#e30613;"/><rect x="183.54" y="26.35" width=".65" height=".27" style="fill:#e30613;"/><rect x="182.88" y="21.98" width=".83" height=".61" style="fill:#e30613;"/><rect x="182.55" y="22.18" width="2.08" height="1.21" style="fill:#e30613;"/><rect x="181.88" y="22.45" width="1.8" height=".81" style="fill:#e30613;"/><rect x="181.13" y="22.69" width="2.71" height=".87" style="fill:#e30613;"/><rect x="180.21" y="23.13" width="2.87" height="1.1" style="fill:#e30613;"/><rect x="180.77" y="22.96" width="1.56" height=".54" style="fill:#e30613;"/><rect x="179.3" y="23.35" width="5.06" height="1.18" style="fill:#e30613;"/><rect x="178.73" y="23.78" width=".32" height=".03" style="fill:#e30613;"/><rect x="178.83" y="23.57" width=".84" height=".91" style="fill:#e30613;"/><rect x="178.49" y="23.94" width="1.33" height=".9" style="fill:#e30613;"/><rect x="177.46" y="24.23" width="2.39" height=".57" style="fill:#e30613;"/><rect x="178.15" y="24.02" width=".78" height=".3" style="fill:#e30613;"/><rect x="177.6" y="24.27" width="5.82" height="2.48" style="fill:#e30613;"/><rect x="182.13" y="25.96" width="1.14" height=".93" style="fill:#e30613;"/><rect x="180.55" y="25.76" width="2" height="1.3" style="fill:#e30613;"/><rect x="180.58" y="26.18" width="1.31" height="1.08" style="fill:#e30613;"/><rect x="179.73" y="25.81" width="1.26" height="1.79" style="fill:#e30613;"/><rect x="179.19" y="26.21" width=".75" height="1.73" style="fill:#e30613;"/><rect x="177.52" y="26.15" width="1.87" height="1.91" style="fill:#e30613;"/></g></svg>